<?xml version="1.0" encoding="utf-8"?>
<!-- Generator: Adobe Illustrator 23.0.4, SVG Export Plug-In . SVG Version: 6.00 Build 0)  -->
<svg version="1.1" id="Layer_1" xmlns="http://www.w3.org/2000/svg" xmlns:xlink="http://www.w3.org/1999/xlink" x="0px" y="0px"
	 viewBox="0 0 894.3 893.9" style="enable-background:new 0 0 894.3 893.9;" xml:space="preserve">
<title>AmericanExpress</title>
<path d="M894.3,579.2c0,22.2-14.4,32.7-39.6,32.7h-48.2v-22.2h48.2c4.7,0,8.2-0.8,9.7-2.3c1.9-1.7,3-4.1,3.1-6.6
	c0-3.1-1.5-6.2-3.1-7.4c-1.6-1.6-4.3-2.3-8.9-2.3c-22.9-0.8-52.1,0.8-52.1-32.3c0-14.8,9.7-31.2,35.8-31.2H889v22.2h-46.1
	c-4.7,0-7.8,0-9.7,1.6c-2.3,2.3-3.9,4.7-3.9,8.2c-0.1,3.3,1.9,6.2,5,7.4c3.2,1,6.4,1.5,9.7,1.6h13.6c14,0,22.9,3.1,29.2,8.2
	C891.1,562,894.3,568.7,894.3,579.2 M789.3,556.6c-6.2-5.1-15.2-8.2-29.1-8.2h-13.6c-3.3-0.1-6.5-0.6-9.7-1.6
	c-3.1-1.2-5.1-4.1-5.1-7.4c0-3.5,0.8-5.8,3.9-8.2c1.9-1.6,5-1.6,9.7-1.6h45.9v-22.2h-49.8c-26.8,0-35.8,16.4-35.8,31.2
	c0,33.1,29.1,31.5,52.1,32.3c4.7,0,7.4,0.8,8.9,2.3c2,2,3.1,4.6,3.1,7.4c-0.1,2.5-1.3,4.9-3.1,6.6c-2.3,1.6-5.1,2.3-9.7,2.3h-48.1
	v22.4h48.2c25.3,0,39.6-10.5,39.6-32.7C796.7,568.7,793.6,562,789.3,556.6 M693.7,590.5H635v-21h57.5v-21H635v-19.1h58.7v-21.8
	h-83.2v104.3h83.2V590.5L693.7,590.5z M583.7,512.6c-8.2-4.3-17.9-5.1-30.7-5.1h-57.1v104.4h25.3v-38.2H548c8.9,0,14,0.8,17.9,4.7
	c4.3,5.1,4.3,14,4.3,21v12.5h24.9v-20.3c0-9.3-0.8-14-3.9-19.1c-3.2-4.2-7.7-7.4-12.8-9c7-2.3,17.9-11.3,17.9-27.6
	C596.2,523.9,591.9,517.3,583.7,512.6 M442.2,507.5h-79.7l-32.3,34.3l-30.3-34.3H199.3v104.4h99.1l31.9-34.3l30.7,34.3h48.2v-35.1
	h31.5c21.4,0,43.1-5.8,43.1-35.1C483.8,513.4,461.7,507.5,442.2,507.5 M563.5,550.7c-3.9,1.6-7.4,1.6-12,1.6l-30.3,0.8v-23.8h30.3
	c4.7,0,8.9,0,12,1.9c3.1,1.6,5,4.7,5,9C568.7,544.3,566.8,548.3,563.5,550.7 M442.2,555.8h-33v-26.5h33c9,0,14.8,3.5,14.8,12.5
	S451.2,555.8,442.2,555.8 M346.2,559.7l38.5-40.9v84.1L346.2,559.7z M285.6,590.5h-61.8v-21H279v-21h-55.2v-19.1h62.6l27.6,30.4
	L285.6,590.5z M825.1,432h-35.8l-47-78.3V432h-50.5l-9.7-23H630l-9.7,23h-29.1c-12,0-27.6-2.7-36.5-11.7c-8.2-9-12.8-21-12.8-39.7
	c0.4-15.6,2.3-29.6,13.6-40.9c7.4-8.2,21-12.1,38.1-12.1h23.7v22.6h-23.7c-8.9,0-14.4,1.6-19.4,5.8c-4.7,4.7-6.6,12.9-6.6,23.8
	c0,11.3,2,19.5,6.6,24.9c3.5,3.5,10.5,5.1,17.1,5.1h11.3l35.8-82.2h36.9l42,98.5v-98.5h38.5l43.9,72.4v-72.4h25.7V432L825.1,432
	L825.1,432z M529.3,327.6h-25.2V432h25.2V327.6z M476.5,332.3c-8.2-4.7-17.1-4.7-29.9-4.7h-57.1V432h24.4v-37.8h26.8
	c8.9,0,14.8,0.8,18.7,4.3c4.3,5.5,3.5,14.4,3.5,20.2v13.2h25.6v-20.6c0-9-0.8-13.6-4.7-18.7c-3.2-3.9-7.3-7-12-8.9
	c7-3.1,17.9-11.3,17.9-27.7C489.7,343.9,484.6,337.3,476.5,332.3 M371.5,410.5h-58.3v-21h57.5v-21.4h-57.5v-18.7h58.3v-21.8h-83.6
	V432h83.6V410.5z M269.3,327.6h-40.8l-30.7,70.9l-32.6-70.9h-40v98.5l-42.8-98.5H45.5L0.8,432h26.8l9.3-23h52.5l9.3,23h50.9v-81.8
	l36.5,81.8h21.4l36.5-81.8V432h25.2V327.6H269.3z M673.1,386.8L656,345.5l-17.1,41.3H673.1L673.1,386.8z M457,370
	c-3.9,2.3-7.4,2.3-12.4,2.3h-30.7v-23h30.7c4.3,0,9.3,0,12.4,1.6c3.1,2,4.7,5.1,4.7,9.7C461.7,365,460.1,368.9,457,370 M45.8,386.8
	l17.5-41.3l17.1,41.3H45.8z M888,0H0v376.2l30.3-69.3h64.9l8.9,17.1v-17.1h75.8l17.1,37l16.7-37h241.7c11.3,0,21,2,28.4,8.2v-8.2
	h66.5v8.2c10.9-6.2,25.3-8.2,41.6-8.2h96l8.9,17.1v-17.1h70.7L778,324v-17.1h69.2V453h-69.9l-13.6-22.2V453h-87.1l-9.7-23.8h-21.4
	l-9.7,23.8h-45.5c-17.9,0-31.1-4.3-40-9v9h-108v-33.5c0-4.7-0.8-5.4-3.9-5.4h-3.5v39H226.2v-18.7l-7.4,18.7h-43.9l-7.4-17.9v17.9
	H83.2l-8.9-23.8H52.9l-9.7,23.8H0.1v440.8h888.1V626.3c-9.3,4.3-22.9,6.6-36.1,6.6h-64.9v-9c-7.4,5.8-21,9-33.4,9h-204v-33.5
	c0-4.7-0.8-4.7-4.7-4.7h-3.5v38.2h-67.2v-39.7c-11.3,5.4-23.7,5.4-35,5.4H432v34.3h-82l-19.4-22.6l-21.7,22.6H177.2V486.5h134.1
	l19.1,22.6l21-22.6h90.2c10.5,0,27.6,1.6,35,9v-9h80.3c8.1,0,23.7,1.6,34.2,9v-9h121.3v9c7-5.8,19.4-9,30.7-9h67.6v9
	c7.4-5.1,17.9-9,31.5-9h45.9L888,0L888,0L888,0z"/>
</svg>
