<?xml version="1.0" encoding="UTF-8" standalone="no"?>
<svg
   enable-background="new 0 0 1945 504"
   version="1.1"
   viewBox="0 0 1253.282 904.64056"
   xml:space="preserve"
   id="svg6"
   sodipodi:docname="diners-club-logo.svg"
   width="1253.282"
   height="904.64056"
   inkscape:version="1.2 (dc2aeda, 2022-05-15)"
   xmlns:inkscape="http://www.inkscape.org/namespaces/inkscape"
   xmlns:sodipodi="http://sodipodi.sourceforge.net/DTD/sodipodi-0.dtd"
   xmlns="http://www.w3.org/2000/svg"
   xmlns:svg="http://www.w3.org/2000/svg"><defs
   id="defs10" /><sodipodi:namedview
   id="namedview8"
   pagecolor="#ffffff"
   bordercolor="#666666"
   borderopacity="1.0"
   inkscape:showpageshadow="2"
   inkscape:pageopacity="0.0"
   inkscape:pagecheckerboard="0"
   inkscape:deskcolor="#d1d1d1"
   showgrid="false"
   inkscape:zoom="0.46825397"
   inkscape:cx="628.9322"
   inkscape:cy="744.25424"
   inkscape:window-width="1680"
   inkscape:window-height="955"
   inkscape:window-x="0"
   inkscape:window-y="25"
   inkscape:window-maximized="1"
   inkscape:current-layer="svg6" />
<path
   d="m 957.87604,540.86595 c -0.78,0 -2.9196,1.3419 -5.8086,2.9219 -5.571,3.189 -16.703,7.9692 -27.303,11.408 v 4.2402 c 10.081,2.91 14.062,3.4417 14.062,20.682 v 147.62 c 0,7.6746 -4.0745,8.634 -10.07,8.7539 -0.8565,0.0171 -1.7509,0.0156 -2.6797,0.0156 h -5.0215 v 6.8906 c 9.821,-0.269 19.364,-0.5293 28.893,-0.5293 7.1632,0 14.174,0.2982 21.016,0.44726 2.2807,0.0497 4.5424,0.082 6.7852,0.082 v -6.8906 h -4.4707 c -7.43,0 -13.25,10e-4 -13.25,-8.7695 v -183.14 c 0,-2.129 -0.5294,-3.7305 -2.1504,-3.7305 z m 183.96996,0 c -0.821,0 -2.9296,1.3399 -5.8496,2.9199 -5.571,3.19 -16.67,7.9712 -27.301,11.41 v 4.2402 c 10.061,2.91 14.061,3.4407 14.061,20.68 v 113.98 c 0,16.16 -1.3493,31.54 -3.6993,47.18 l 5.5489,2.8984 7.9394,-6.0801 c 6.9,2.901 17.23,9.2715 36.83,9.2715 37.922,0 63.352,-34.728 63.352,-69.449 0,-28.869 -18.531,-55.67 -49.281,-55.67 -12.766,0 -25.317,7.7178 -35.35,15.684 -1.4332,1.138 -2.8149,2.2799 -4.1387,3.4062 v -96.74 c 0,-2.129 -0.5294,-3.7305 -2.1094,-3.7305 z m -295.52996,13.51 c -51.94,0 -100.43,38.98 -100.43,93.32 0,59.641 39.211,99.67 101.21,99.67 17.51,0 47.459,-7.1506 58.59,-14.061 l 6.08,-38.699 -6.08,-1.5801 c -5.3,27.839 -27.05,45.859 -53.279,45.859 -40.801,0 -78.99,-38.42 -78.99,-92 0,-63.611 44.26,-84.01 74.76,-84.01 29.67,0 51.67,12.471 56.709,43.471 h 6.6113 l -2.6406,-37.891 c -20.41,-7.16 -41.08,-14.08 -62.541,-14.08 z m -624.66993,1.0605 c -6.619,0 -12.979,6.11 -12.979,12.75 0,6.891 6.0795,13.25 12.979,13.25 7.141,0 12.99,-6.09 12.99,-13.25 0,-7.159 -6.1202,-12.75 -12.99,-12.75 z m -220.77,2.9316 v 6.8887 c 11.175,0.24281 22.8,-1.1212 24.209,18.352 0.0939,1.2982 0.14257,2.6896 0.14257,4.1797 h -0.002 v 128.56 c -0.76,18.03 -8.4586,18.559 -24.35,20.16 v 6.8789 c 5.9605,-0.13 11.858,-0.25969 17.756,-0.35742 5.8976,-0.0977 11.794,-0.16211 17.754,-0.16211 9.3375,0 18.686,0.29292 28.477,0.43945 3.2634,0.0488 6.5776,0.0801 9.9551,0.0801 93.821,0 109.17999,-65.99 109.17999,-92.24 0,-46.939 -37.37,-92.777 -105.99,-92.777 -19.619,0 -34.729,0.50976 -45.859,0.50976 -10.351,0 -20.942,2.4e-4 -31.271,-0.50976 z m 71.012,8.498 c 51.139,0 82.949,35.78 82.949,85.33 0,39.5 -18.799,82.711 -76.059,82.711 -12.98,0 -27.57,-2.381 -27.57,-22.791 v -144.19 c 4.8,-0.281 9.7997,-1.0605 20.68,-1.0605 z m 158.5,55.381 c -1.33,0 -2.9112,0.27985 -4.7812,1.3398 -1.039,0.8 -15.9,5.801 -28.35,9.541 v 4.25 c 9.809,5.27 13.781,6.8901 13.781,18.539 v 71.82 c 0,7.6746 -4.0662,8.634 -10.047,8.7539 -0.85439,0.0171 -1.7476,0.0156 -2.6738,0.0156 h -5.0195 v 6.8906 c 9.78999,-0.269 19.339,-0.5293 28.879,-0.5293 7.14,0 14.144,0.29848 21.006,0.44726 2.28719,0.0496 4.5592,0.082 6.81449,0.082 v -6.8906 h -4.5 c -7.41999,0 -13.25,10e-4 -13.25,-8.7695 v -101.76 c 0,-2.13 -0.54837,-3.7305 -1.8594,-3.7305 z m 111.87,0 c -17.779,0 -30.769,9.0316 -45.9,19.891 v -17.238 c 0,-2.11 -0.77933,-2.6504 -1.5703,-2.6504 -12.728,5.58 -23.579,9.0302 -34.969,12.74 v 5.0274 c 10.875,4.41 14.478,6.9836 15.209,14.123 0.10442,1.0199 0.15039,2.1324 0.15039,3.3574 h -0.002 v 70.238 c 0,8.771 -5.289,8.7715 -12.709,8.7715 h -4.7812 v 6.8887 c 9.531,-0.269 19.09,-0.52929 28.621,-0.52929 7.1542,0 14.169,0.2982 21.141,0.44726 2.32371,0.0497 4.64321,0.082 6.96091,0.082 v -6.8887 h -4.7617 c -7.43201,0 -13.29101,-5e-4 -13.29101,-8.7715 v -78.439 c 8.78,-5.839 22.30201,-12.729 30.77201,-12.729 15.131,0 24.361,7.4091 24.361,22.539 v 68.631 c 0,8.77 -5.2739,8.7695 -12.713,8.7695 h -4.7598 v 6.8906 c 9.529,-0.269 19.08,-0.5293 28.631,-0.5293 7.14,0 14.14,0.29848 21.117,0.44726 2.3257,0.0496 4.6494,0.082 6.9746,0.082 v -6.8906 h -4.7714 c -7.43,0 -13.26,4.5e-4 -13.26,-8.7695 v -68.381 c 0,-20.67 -7.9494,-37.109 -30.449,-37.109 z m 100.94,0 c -18.54,0 -53.52,15.379 -53.52,67.34 0,16.949 8.4809,57.779 50.631,57.779 21.719,0 36.82,-13.779 49.02,-29.939 l -3.6992,-3.7188 c -9.791,9.8 -21.211,17.75 -35.801,17.75 -21.169,0 -37.37801,-20.672 -38.939,-45.842 -0.551,-9.02 -0.551,-12.988 0,-15.379 h 74.45899 l 2.4004,-1.5918 c 0.24981,-1.61 0.25,-3.1791 0.25,-4.7891 -0.25,-28.099 -23.321,-41.609 -44.801,-41.609 z m 89.352,0 c -2.41,0 -13.019,6.8989 -32.369,15.129 v 3.9609 c 3.99,2.12 13.779,3.7197 13.779,11.93 v 74.471 c 0,7.6746 -4.0586,8.634 -10.029,8.7539 -0.853,0.0171 -1.7452,0.0156 -2.6699,0.0156 h -7.1582 v 6.8906 c 9.539,-0.27 20.68,-0.5293 31.539,-0.5293 11.42,0 22.51,0.2583 37.09,0.5293 v -6.8906 h -14.83 c -0.9288,0 -1.824,-4.5e-4 -2.6797,-0.0176 -0.8557,-0.0171 -1.6711,-0.0506 -2.4414,-0.11914 -3.08141,-0.27406 -5.4325,-1.0979 -6.65621,-3.5644 -0.306,-0.61664 -0.5401,-1.3345 -0.69929,-2.1738 -0.1591,-0.83931 -0.24221,-1.7983 -0.24221,-2.8945 v -62.271 c 0,-15.91 14.83001,-22.01 19.34001,-22.01 9.25999,0 9.2598,6.3809 17.50999,6.3809 7.41881,0 12.439,-6.381 12.439,-13.541 0,-9.55 -8.4706,-14.049 -15.1,-14.049 -14.131,0 -24.436,13 -31.219,23.17 -0.9689,1.4529 -1.8652,2.8474 -2.6914,4.1387 h -0.5625 v -23.85 c 0,-2.66 -0.7796,-3.459 -2.3496,-3.459 z m 101.74996,0 c -29.14098,0 -41.07996,19.089 -41.07996,33.939 0,42.67 57.75996,32.601 57.75996,63.881 0,9.28 -5.8394,18.82 -21.43899,18.82 -19.359,0 -29.94899,-14.852 -33.39998,-32.352 l -4.7813,1.3438 2.9199,30.488 c 9.26899,5.29 21.71998,9 32.31999,9 31.53895,0 45.58995,-18.571 45.58995,-36.061 0,-41.61 -61.47795,-32.04 -61.47795,-63.08 0,-11.389 10.05999,-17.488 20.66,-17.488 16.98098,0 26.24995,9.5475 28.89095,26.229 h 6.1093 l -1.8828,-27.01 c -10.33,-5.31 -21.71597,-7.7109 -30.18797,-7.7109 z m 377.65993,3.9883 c -3.459,0 -24.61896,1.5916 -34.16996,1.8516 v 5.0391 c 14.82,1.319 15.871,7.9498 15.871,14.84 v 67.881 c 0,20.859 13.04196,30.312 26.46296,31.412 0.8947,0.0733 1.7912,0.10938 2.6855,0.10938 18.83,0 31.041,-9.271 46.92,-22.25 v 21.449 l 1.33,0.80078 c 5.041,-1.58 26.772,-7.1512 38.18,-8.2012 v -5.5801 c -3.459,0 -7.4203,0.25976 -10.609,0.25976 -4.5,0 -7.4004,-0.25883 -7.4004,-5.0488 v -97.783 c 0,-2.93 -5e-4,-4.7793 -2.1485,-4.7793 -2.631,0 -17.5,2.109 -41.32,3.709 v 4.7695 c 9.519,2.661 22.23,5.5716 22.23,10.852 v 71.34 c -11.121,9.25 -23.041,16.141 -32.051,16.141 -23.039,0 -23.039,-22.789 -23.039,-30.76 v -68.369 c 0,-5.83 -4e-4,-7.6816 -2.9414,-7.6816 z m -569.81989,4.502 c 14.85,0 23.062,10.87 23.062,24.391 0,3.17 -0.7836,6.6191 -7.3926,6.6191 h -46.131 c 3.18,-19.101 14.311,-31.01 30.461,-31.01 z m 726.99989,5.832 c 20.68,0 42.389,23.849 42.389,52.469 0,23.599 -11.92,51.449 -40.279,51.449 -17.76,0 -27.289,-16.981 -27.289,-27.061 v -64.379 c 7.149,-6.109 15.35,-12.479 25.18,-12.479 z m -902.78989,159.4 -0.0605,0.67968 c -0.25,3.771 -3.1685,3.8306 -7.1895,3.8906 h -75.121 c -3.66999,-0.06 -6.3401,-0.0788 -7.3301,-3.7188 l -0.0996,-0.45117 h -4.5703 v 0.63085 c 0,4.14 -0.27891,8.1387 -0.87891,12.139 -0.429,4.2 -1.1602,8.2217 -1.74019,12.262 l -0.0801,0.75 h 5.5508 l 0.10743,-0.49024 c 2.351,-10.66 2.13099,-12.46 12.791,-12.65 h 23.021 v 76.41 c -0.18101,11.181 -3.3801,11.281 -11.33001,11.471 h -3.35159 v 5.5801 h 0.60155 c 1.41521,0 3.1075,-0.0374 4.98441,-0.0918 5.6308,-0.16312 12.924,-0.48828 19.404,-0.48828 5.8125,0 12.941,0.32516 18.539,0.48828 1.8659,0.0544 3.56219,0.0918 4.9824,0.0918 l 0.60742,-0.002 v -5.5801 h -3.3789 c -6.87,-0.14 -11.188,-0.88955 -11.318,-11.77 v -76.111 h 23.02 c 9.11,0 9.6796,7.8398 10.061,13.26 l 0.0391,0.83985 5.1094,-1.8574 0.40039,-0.16015 v -0.45117 c 0,-3.89 10e-4,-7.7889 0.29102,-11.629 0.42,-3.87 0.98836,-7.7709 1.5684,-11.631 l 0.0898,-0.62891 -4.0684,-0.64257 z m 501.14993,0 -0.041,0.6914 c -0.25,3.759 -3.1587,3.8194 -7.1387,3.8984 h -74.432 l -0.7285,-0.0195 c -3.691,-0.06 -6.3201,-0.0807 -7.3301,-3.7207 l -0.1211,-0.44921 h -4.5586 v 0.6289 c 0,4.14 -0.2811,8.1399 -0.8711,12.17 -0.42,4.17 -1.1402,8.1908 -1.7402,12.26 l -0.09,0.7207 h 5.5606 l 0.1093,-0.48828 c 2.362,-10.66 2.1216,-12.469 12.811,-12.65 v -0.63086 0.63086 h 22.99 l 0.02,76.41 c -0.1741,9.7834 -2.6392,11.082 -8.5781,11.381 -0.8484,0.0427 -1.7681,0.0661 -2.7617,0.0898 h -3.3692 v 5.5801 h 0.6387 c 1.4125,0 3.1024,-0.0374 4.9785,-0.0918 5.6283,-0.16312 12.927,-0.48828 19.393,-0.48828 5.805,0 12.938,0.32516 18.529,0.48828 1.8637,0.0544 3.5557,0.0918 4.9707,0.0918 l 0.6191,-0.002 v -5.5801 h -3.3789 c -6.861,-0.14 -11.17,-0.88955 -11.32,-11.77 v -76.109 h 23.029 c 9.11,0 9.6798,7.8408 10.051,13.26 l 0.029,0.84179 5.1113,-1.8613 0.4082,-0.16015 v -0.44922 c 0,-3.88 0,-7.7909 0.291,-11.631 0.439,-3.87 0.9901,-7.7689 1.5801,-11.629 l 0.1074,-0.63086 -4.0898,-0.63867 z m -129.46996,0.96289 c -0.59001,0 -0.9906,0.20007 -1.3906,0.33007 -2.781,1.76 -8.56988,4.6595 -13.08998,6.1895 -1.25,5.75 -3.8492,12.941 -5.7402,18.291 l -23.08998,66.189 c -1.82,5.1362 -5.478,8.1118 -9.961,8.7891 -0.6404,0.0967 -1.2976,0.14789 -1.9687,0.15039 h -1.4903 v 5.6387 l 0.67,-0.0391 c 5.17,-0.29 10.369,-0.5918 15.539,-0.5918 5.74998,0 11.63998,0.3018 17.40998,0.5918 l 0.6504,0.0391 v -5.6387 h -2.2227 c -4.78,0 -10.17,-0.85986 -10.21901,-4.3809 0,-0.29375 0.025,-0.61053 0.074,-0.94922 0.3447,-2.3708 1.8271,-5.8259 3.10541,-10.131 l 4.4805,-14.568 h 31.80898 l 5.4902,16.311 c 1.59,4.589 2.8907,8.5484 2.8497,10.189 0,2.4229 -3.7957,3.3069 -6.9825,3.4902 -0.4552,0.0262 -0.8989,0.0391 -1.3164,0.0391 h -2.2207 v 5.6387 l 0.6504,-0.0391 c 7.381,-0.29 14.56096,-0.5918 21.63096,-0.5918 6.87,0 13.36,0.3018 19.85,0.5918 l 0.664,0.041 v -5.6387 h -1.4707 c -4.639,-0.02 -7.2889,-1.5299 -8.9589,-5.3809 -1.881,-4.259 -3.6018,-9.5884 -5.3028,-14.648 l -26.55996,-75.432 c -0.44,-1.17 -0.8889,-2.4516 -1.2988,-3.6406 -0.461,-0.761 -1.2399,-0.84984 -1.5899,-0.83984 z m 470.75992,0.0273 c -0.589,0 -0.9804,0.17078 -1.3594,0.30078 -2.801,1.761 -8.5901,4.6409 -13.121,6.2109 -1.2799,5.73 -3.8787,12.92 -5.7187,18.27 l -23.08,66.189 c -1.8384,5.1188 -5.5142,8.1252 -10.008,8.8106 -0.6419,0.0979 -1.3003,0.14777 -1.9726,0.15039 h -1.4512 v 5.6191 l 0.6308,-0.0391 c 5.199,-0.26 10.381,-0.58008 15.551,-0.58008 5.738,0 11.639,0.32008 17.41,0.58008 l 0.6386,0.0391 v -5.6191 h -2.1992 c -4.772,0 -10.17,-0.87993 -10.17,-4.4199 -0.031,-2.331 1.6919,-6.1206 3.1309,-11.061 l 4.4609,-14.57 h 31.828 l 5.4805,16.311 c 1.609,4.62 2.9079,8.5484 2.8789,10.189 0,0.51937 -0.177,0.96999 -0.4844,1.3574 -0.1024,0.12914 -0.2196,0.25152 -0.3496,0.36719 -1.2998,1.1566 -3.8965,1.6534 -6.1836,1.7871 -0.4574,0.0267 -0.9024,0.0391 -1.3222,0.0391 h -2.1895 v 5.6191 l 0.6406,-0.0391 c 7.361,-0.26 14.578,-0.58008 21.609,-0.58008 6.89,0 13.369,0.32008 19.859,0.58008 l 0.6601,0.0391 v -5.6191 h -1.5 c -4.6,-0.04 -7.2309,-1.5511 -8.9199,-5.3711 -1.869,-4.29 -3.5993,-9.6197 -5.3203,-14.68 l -26.52,-75.43 c -0.48,-1.17 -0.9001,-2.4803 -1.3301,-3.6113 -0.461,-0.79 -1.1991,-0.87984 -1.5801,-0.83984 z m 129.31,0.12109 c -8.692,0 -15.19,6.6812 -15.189,15.24 0,8.52 6.4984,15.139 15.189,15.139 8.69,0 15.182,-6.6187 15.182,-15.139 0,-8.56 -6.4927,-15.24 -15.182,-15.24 z m -359.73996,1.3086 c -30.288,0.04 -53.768,23.511 -53.83,53.85 0.057,30.37 22.282,51.009 51.711,52.324 0.9494,0.0424 1.9054,0.0645 2.8692,0.0664 30.988,-0.059 55.09,-22.34 55.119,-55.869 -0.06,-31.1 -24.89,-50.351 -55.869,-50.371 v 0.63086 z m 359.73996,1.5312 c 6.869,0 12.01,5.8504 12.01,12.4 0,6.51 -5.2208,12.309 -12.01,12.309 -6.83,0 -12.051,-5.7986 -12.051,-12.309 0,-0.20466 0.01,-0.41015 0.016,-0.61328 0.3127,-6.2972 5.4186,-11.787 12.035,-11.787 z M 1.1e-4,800.53957 v 5.5801 h 2.6406 c 5.23,0.099 9.9891,0.5711 10.039,7.6211 v 75.561 c -0.0438,6.1687 -3.6944,7.2604 -8.1094,7.5176 -0.63072,0.0367 -1.2761,0.0573 -1.92971,0.0723 H 0 v 5.5801 h 0.61914 c 1.4178,0 3.0104,-0.0374 4.7129,-0.0918 5.1076,-0.16312 11.20101,-0.48828 16.488,-0.48828 5.3857,0 11.59,0.32516 17.29701,0.48828 1.9023,0.0544 3.7497,0.0918 5.4922,0.0918 h 0.64062 v -5.5801 h -2.66019 c -5.231,-0.12 -10.022,-0.53985 -10.051,-7.5898 v -75.561 c 0.002,-0.44063 0.0226,-0.85731 0.0605,-1.248 0.56941,-5.861 5.0871,-6.2793 9.9902,-6.373 h 2.6602 v -5.5801 h -0.64063 c -1.70479,0 -3.5221,0.0364 -5.4024,0.0898 -3.76049,0.10688 -7.7703,0.28375 -11.62099,0.39063 -1.92541,0.0534 -3.81241,0.0898 -5.6074,0.0898 -7.049,0 -15.688,-0.57031 -21.359,-0.57031 z m 465.83999,0.002 v 5.5781 h 2.5313 c 6.16,0.011 12.449,4.6706 12.459,12.352 v 60.709 c -0.084,10.819 -2.4903,16.884 -10.635,17.633 -0.543,0.0499 -1.1101,0.0756 -1.7051,0.0781 h -2.6504 v 5.5801 h 0.6504 c 1.6225,0 3.2549,-0.0364 4.8926,-0.0918 4.9132,-0.16622 9.868,-0.5 14.697,-0.5 3.09,0 6.1796,0.14913 9.2773,0.29688 3.0978,0.14775 6.2033,0.29492 9.3223,0.29492 h 0.6308 v -5.5801 h -3.0507 c -10.879,-0.141 -12.779,-3.7 -12.949,-16.25 v -57.791 l 73.19,81.58 5.9375,0.19922 h 0.6914 l -0.08,-0.69922 c -0.73,-4.44 -0.8613,-9.4405 -0.8613,-14.48 v -65.629 c 0.01,-1.0632 0.043,-2.0616 0.098,-3 0.819,-14.075 6.5557,-14.549 12.133,-14.699 h 2.7695 v -5.5801 h -0.6289 c -1.4848,0 -2.9662,0.0345 -4.4473,0.0879 -2.9622,0.10669 -5.9175,0.28394 -8.8652,0.39063 -1.4739,0.0533 -2.9458,0.0898 -4.416,0.0898 -6.74,0 -13.379,-0.56836 -20.199,-0.56836 h -0.6308 v 5.5801 h 3.8105 c 4.189,0.059 11.869,1.4775 11.91,12.938 v 53.062 l -63.391,-71.381 c -4.84,-0.199 -9.0218,0.36914 -13.262,0.36914 -5.4389,0 -11.078,-0.56836 -16.578,-0.56836 z m -102.79,0.002 v 5.5898 h 3.2207 c 4.481,0.149 9.4906,0.0901 9.5996,10.33 v 73.279 c -0.017,4.2525 -3.3736,6.5141 -7.6953,7.0332 -0.6174,0.0742 -1.2545,0.11148 -1.9043,0.11523 h -3.2207 v 5.5801 h 0.6308 c 1.8103,0 3.59001,-0.0355 5.3496,-0.0899 5.27881,-0.16312 10.37301,-0.49023 15.54101,-0.49023 4.09491,0 8.23479,0.14602 12.381,0.29102 4.1462,0.145 8.298,0.28906 12.418,0.28906 h 0.64059 v -5.5801 h -3.2285 c -6.67,-0.16 -11.032,-0.0699 -11.182,-10.92 v -30.221 h 8.5215 c 9.32,16.48 18.798,31.97 29.859,46.48 5.029,0.24 9.6293,-0.33984 14.029,-0.33984 3.555,0 7.0254,0.32516 10.576,0.48828 1.1836,0.0544 2.3765,0.0918 3.584,0.0918 h 0.6191 v -5.5 l -0.5293,-0.0801 c -7.02,-0.899 -9.5295,-2.3892 -13.56,-8.3691 l -24.23,-36.279 c 11.131,-4.541 19.74,-12.669 19.74,-25.699 -0.049,-20.94 -16.789,-25.96 -34.959,-26 -1.92,0 -3.7938,0.0346 -5.6582,0.0879 -3.7287,0.10669 -7.4217,0.2859 -11.383,0.39258 -1.9805,0.0533 -4.0274,0.0879 -6.1797,0.0879 -8.78,0 -17.68,-0.56836 -22.35,-0.56836 z m -313.62,0.0176 v 5.5606 h 2.5215 c 6.18,0.02 12.479,4.6794 12.5,12.359 v 60.74 c -0.10313,10.781 -2.5006,16.834 -10.652,17.59 -0.54345,0.0504 -1.1114,0.077 -1.707,0.0801 h -2.66019 v 5.5801 h 0.62889 c 1.635,0 3.2767,-0.0374 4.91801,-0.0918 4.9238,-0.16312 9.85809,-0.48828 14.70299,-0.48828 3.0755,0 6.1662,0.14406 9.2676,0.28906 3.10141,0.145 6.214,0.29102 9.334,0.29102 h 0.63867 v -5.5801 h -3.0898 c -10.86,-0.139 -12.769,-3.7002 -12.939,-16.24 v -57.801 l 73.182,81.57 5.9473,0.2207 v -0.002 h 0.75 l -0.14062,-0.74024 c -0.701,-4.37 -0.84961,-9.4092 -0.84961,-14.449 v -65.629 c 0.0106,-1.0631 0.0441,-2.0637 0.0996,-3.002 0.83231,-14.073 6.55079,-14.539 12.129,-14.699 h 2.78121 v -5.5586 h -0.63086 c -1.49,0 -2.977,0.0344 -4.46091,0.0859 -2.9678,0.10312 -5.92381,0.27578 -8.86919,0.37891 -1.47262,0.0516 -2.9426,0.0859 -4.41021,0.0859 -6.74001,0 -13.37801,-0.55078 -20.189,-0.55078 h -0.64063 v 5.5606 h 3.8203 c 4.201,0.101 11.85,1.481 11.92999,12.961 v 53.039 l -63.379,-71.352 c -4.859,-0.21 -9.0401,0.34179 -13.33,0.34179 -5.41,0 -11.059,-0.55078 -16.57,-0.55078 z m 224.96,0 v 5.5586 h 2.6309 c 5.22901,0.11 9.96911,0.5811 10.039,7.6211 v 75.561 c -0.0621,6.1687 -3.69809,7.2913 -8.1094,7.5293 -0.63018,0.034 -1.2761,0.0505 -1.9297,0.0605 H 274.39 v 5.5801 h 0.60938 c 2.0575,0 4.6734,-0.0364 7.6406,-0.0918 8.9018,-0.16622 20.978,-0.5 30.72102,-0.5 9.7118,0 21.466,0.33378 30.643,0.5 3.0589,0.0554 5.8315,0.0918 8.1465,0.0918 h 0.4922 l 0.1191,-0.51172 c 1.291,-7.639 3.0219,-15.258 4.8809,-22.898 l 0.1406,-0.60156 -4.6211,-1.1894 -0.6094,-0.10938 -0.1406,0.58008 c -4.35,16.201 -11.311,17.041 -28.67,17.141 -9.401,-0.05 -16.95902,2.3e-4 -16.97102,-8.7598 v -32.99 l 16.67002,0.01 c 9.58,0.109 9.6506,4.9305 10.641,13.73 l 0.051,0.67969 5.0098,-1 0.5215,-0.11914 -0.01,-0.51172 c -0.279,-5.49 -0.4609,-10.96 -0.4609,-16.42 0,-2.81 0.045,-5.6197 0.125,-8.4297 0.08,-2.81 0.1964,-5.6197 0.3359,-8.4297 l 0.01,-0.64844 h -5.5313 l -0.051,0.56836 c -0.981,7.77 -2.4685,12.022 -10.77,12.102 h -16.56101 l 0.0215,-36.51 h 19.43002 c 14.84901,0.14 16.09901,6.9291 16.949,16.289 l 0.027,0.74024 5.0703,-1.3203 0.4805,-0.14062 -0.02,-0.51953 c -0.291,-4.111 -0.4296,-9.5618 -0.4296,-14.551 0,-2.721 0.039,-5.2792 0.1386,-7.4492 l 0.031,-0.64063 h -0.6504 c -2.455,0 -5.2321,0.0344 -8.2051,0.0859 -5.9461,0.10312 -12.678,0.27578 -19.201,0.37891 -3.2616,0.0516 -6.4716,0.0859 -9.5039,0.0859 -12.09002,0 -27.09102,-0.55078 -35.89102,-0.55078 z m 501.88994,0 v 5.5586 h 2.6485 c 5.209,0.099 9.9897,0.5811 10.01,7.6211 v 75.561 c -0.018,6.1775 -3.6789,7.293 -8.0839,7.5293 -0.6293,0.0337 -1.2747,0.0505 -1.9258,0.0605 h -2.6485 v 5.5801 h 0.629 c 1.4077,0 2.9946,-0.0364 4.6953,-0.0918 5.102,-0.16622 11.218,-0.5 16.506,-0.5 5.3918,0 11.594,0.33378 17.299,0.5 1.9014,0.0554 3.746,0.0918 5.4882,0.0918 h 0.6114 v -5.5801 h -2.6309 c -5.269,-0.08 -10,-0.52985 -10.07,-7.5898 v -75.561 c 0,-0.44 0.029,-0.85584 0.068,-1.2461 0.5967,-5.8539 5.0614,-6.2812 10.002,-6.375 h 2.6309 v -5.5586 h -0.6114 c -1.7075,0 -3.5284,0.0344 -5.4121,0.0859 -3.7673,0.10312 -7.783,0.27578 -11.641,0.37891 -1.9288,0.0516 -3.8194,0.0859 -5.6172,0.0859 -7.029,0 -15.687,-0.55078 -21.318,-0.55078 z m 160.33,0 v 5.5606 h 2.4902 c 6.199,0.01 12.49,4.6696 12.51,12.35 v 60.75 c -0.1116,10.782 -2.518,16.834 -10.654,17.572 -0.5424,0.0492 -1.1107,0.0763 -1.7051,0.0781 h -2.6406 v 5.5996 h 0.5996 c 1.6377,0 3.2809,-0.0374 4.9238,-0.0918 4.9286,-0.16312 9.8636,-0.48828 14.717,-0.48828 3.0805,0 6.169,0.14406 9.2676,0.28906 3.0986,0.145 6.209,0.29102 9.334,0.29102 h 0.6308 v -5.5996 h -3.1211 c -10.83,-0.13 -12.74,-3.6807 -12.898,-16.221 v -57.801 l 73.16996,81.57 5.9688,0.20898 v 0.002 h 0.6875 l -0.1192,-0.70117 c -0.702,-4.41 -0.8105,-9.4385 -0.8105,-14.479 v -65.629 c 0.121,-16.99 6.2594,-17.531 12.189,-17.701 h 2.8008 v -5.5586 h -0.6191 c -1.495,0 -2.984,0.0344 -4.4688,0.0859 -2.9695,0.10313 -5.9243,0.27578 -8.8789,0.37891 -1.4773,0.0516 -2.9536,0.0859 -4.4336,0.0859 -6.709,0 -13.359,-0.55079 -20.148,-0.55079 h -0.6504 v 5.5586 h 3.7891 c 4.22,0.1 11.9,1.482 11.941,12.961 v 53.039 l -63.36096,-71.35 c -4.879,-0.211 -9.0393,0.33984 -13.32,0.33984 -5.44,0 -11.059,-0.55078 -16.59,-0.55078 z m 221.16996,0 v 5.5606 h 2.6211 c 5.259,0.101 10.17,0.57985 10.23,7.5898 v 74.15 c -0.053,7.4812 -3.841,8.6908 -8.2911,8.957 -0.6357,0.038 -1.2857,0.0573 -1.9394,0.0723 h -2.6211 v 5.5801 h 0.6113 c 3.1773,0 6.354,-0.0374 9.5293,-0.0918 9.526,-0.16312 19.045,-0.48828 28.57,-0.48828 6.3255,0 12.662,0.14406 19.004,0.28906 6.3423,0.145 12.69,0.29102 19.045,0.29102 v 0.002 h 0.4902 l 0.1192,-0.49023 c 1.7499,-8.21 3.7284,-16.27 5.3574,-24.52 l 0.1308,-0.75977 h -5.4297 l -0.1308,0.47852 c -0.859,3.15 -2.1404,7.1094 -4.3594,10.189 -2.481,3.44 -7.5409,6.8305 -13.42,7.5195 -3.721,0.4 -7.3909,0.57031 -10.92,0.57031 -2.781,0 -5.451,-0.10906 -8,-0.28906 -4.5,-0.63 -8.0216,-2.0812 -8.0606,-7.4512 v -74.43 c 0.11,-7.271 3.5897,-7.0099 9.1797,-7.1699 h 4.2109 v -5.5606 h -0.5918 c -1.8522,0 -3.6901,0.0344 -5.5214,0.0859 -3.6628,0.10312 -7.2951,0.27578 -10.936,0.37891 -1.8202,0.0516 -3.6426,0.0859 -5.4726,0.0859 -7.619,0 -15.129,-0.55078 -22.799,-0.55078 z m 72.859,3.5996 v 0.76953 c 1.969,-0.079 2.1387,0.46007 2.1387,2.0391 v 11.24 c -1e-4,1.16 -0.34,1.1013 -2.209,1.3613 v 0.74804 h 7.3398 v -0.75 c -1.871,-0.26 -2.2207,-0.19922 -2.2207,-1.1992 v -5.0508 h 1.6797 c 2.6259,3.7594 3.8807,6.6217 5.1973,6.9648 0.088,0.0229 0.1749,0.0351 0.2636,0.0351 h 2.959 v -0.49023 c -0.87,-0.519 -2.1796,-2.0001 -3.3496,-3.5801 l -2.4902,-3.4785 c 2.09,-0.65 3.5898,-2.3201 3.5898,-4.5801 0,-2.76 -2.4489,-4.0293 -5.1289,-4.0293 z m 5.0488,1.0078 h 1.6914 c 1.559,0 2.9785,0.85149 2.9785,3.2715 0,2.39 -0.9199,3.8809 -2.8789,3.8809 h -1.791 z m -357.56996,0.82227 c 23.439,0.031 34.699,25.06 34.699,45.969 -0.068,21.03 -4.8183,45.051 -32.238,45.09 -22.84,-0.06 -34.55,-24.189 -34.57,-49.879 0,-1.2006 0.035,-2.413 0.098,-3.6289 0.9344,-18.239 8.818,-37.523 32.012,-37.551 z m -474.95992,0.98828 c 12.561,0.05 20.39099,7.8707 20.471,20.471 -0.15,16.761 -7.3324,21.721 -21.611,21.842 h -6.4297 v -41.791 c 1.84,-0.16099 3.67039,-0.52148 7.57039,-0.52148 z m 223.48997,11.891 12.55098,38.65 h -25.23999 z m 470.75991,0.0195 12.541,38.631 h -25.221 z"
   id="path2" /><path
   d="M 562.69602,1.8036584e-5 C 423.29602,-0.04998196 308.55602,103.89002 308.55602,254.19002 c 0,137.5 114.74,250.47 254.14,249.81 h 118.55002 c 137.75,0.659 263.48,-112.34 263.48,-249.81 0,-150.33 -125.73,-254.24000196 -263.48,-254.190001963416 z M 563.25657,20.830018 c 127.40997,0.04 230.64997,103.290002 230.66997,230.720002 -0.018,127.41 -103.26,230.65 -230.66997,230.69 -127.38,-0.04 -230.6,-103.28 -230.63,-230.69 0.03,-127.43 103.25,-230.680002 230.63,-230.720002 z m 52.32,94.240002 v 272.98 c 54.85997,-21.09 93.80997,-74.181 93.90997,-136.5 -0.1,-62.3 -39.05,-115.43 -93.90997,-136.48 z m -104.66,0.01 c -54.84,21.101 -93.73,74.201 -93.85,136.47 0.119,62.279 39.01,115.35 93.85,136.44 z"
   id="path4" />
</svg>
