<svg id="layer" version="1.1" viewBox="0 0 595.8 99.5" xml:space="preserve" xmlns="http://www.w3.org/2000/svg">
<path fill="#000" d="m309.3 3.3652e-4c-27.4 0.1-49.6 22.401-49.6 49.801 0.1 27.5 22.301 49.699 49.801 49.699 27.5-0.1 49.699-22.301 49.699-49.801-0.1-27.6-22.4-49.799-49.9-49.699zm-77.799 1c-27.2-0.4-49.702 21.4-50.102 48.6v0.20117c-0.2 26.8 21.401 48.8 48.201 49h1.4004c8 0 15.9-1.9016 23-5.6016v-21.398c-5.6 6.6-13.8 10.299-22.4 10.299-16.9 0.5-31-12.799-31.5-29.699v-2.5996c-0.6-17.2 12.9-31.601 30.1-32.201h0.80078c8.8 0.1 17.098 3.9 22.898 10.5v-21.5c-6.9-3.7-14.598-5.5996-22.398-5.5996zm-86.5 0.5c-15.2-1-28.301 10.599-29.201 25.699v0.90039c0 12.9 5.8996 19.501 23.1 25.701 4.4 1.4 8.6016 3.2996 12.602 5.5996 3.5 2 5.5996 5.6992 5.5996 9.6992 0 7.4-6.1004 13.301-13.4 13.201h-0.80078c-8.5 0.1-16.4-4.7-20-12.5l-11.799 11.199c6.8 11.4 19.2 18.3 32.5 17.9 19 0 32.4-12.701 32.4-30.801-0.3-14.9-6.6008-21.599-27.301-29.199-11.2-4-14.199-6.7008-14.199-11.801 0-5.1 5.7992-10.199 13.699-10.199 5.8 0.1 11.199 2.8996 14.699 7.5996l9.6016-12.5c-7.6-6.8-17.4-10.5-27.5-10.5zm443.7 0.59961c-4-0.1-7.3008 3.0996-7.3008 7.0996-0.1 4 3.1016 7.3008 7.1016 7.3008 4 0.1 7.2988-3.0996 7.2988-7.0996v-0.0996c0-3.9-3.1996-7.1012-7.0996-7.2012zm-234.6 0.70117 39.799 96.299h9.8008l40.5-96.299h-19.801l-25.398 63-25-63zm-354.1 0.0996v93.799h26.799c12.2 0.7 24.2-3.1984 33.6-10.898 10.7-8.9 16.801-22.1 16.801-36 0-27.4-20.7-46.9-50.4-46.9zm85.6 0v93.799h18.299v-93.799zm366.8 0v93.799h51.9v-15.898h-33.6v-25.301h32.4v-15.9h-32.4v-20.799h33.6v-15.9zm64.201 0v93.799h18.299v-37.699h2.4004l25.4 37.699h22.4l-29.6-39.5c12.9-1.9 22.299-13.5 21.299-26.6 0-17.6-12.099-27.699-33.199-27.699zm72.1 0.9004c3.1 0 5.5996 2.4996 5.5996 5.5996 0.2 3.1-2.1988 5.7004-5.2988 5.9004h-0.30078c-3.1 0-5.5996-2.5016-5.5996-5.6016v-0.29883c0-3.1 2.4996-5.5996 5.5996-5.5996zm-3.0996 1.5v8.1992h2v-3.1992l2.4004 3.1992h2.3984l-3-3.4004c1.1-0.1 2.0004-1.0988 1.9004-2.2988 0-1.6-1.0996-2.5-3.0996-2.5zm2 1.5h0.40039c1 0 1.5 0.29961 1.5 1.0996s-0.60156 1-1.6016 1h-0.29883zm-53.1 10.898h5.5996c11.2 0 17.6 4.8004 17.6 13.9s-5.8996 14.5-17.6 14.5h-5.5996zm-516.3 1h4.9004c11.8 0 19 2.1016 25 7.6016 6.5 6 10.2 14.499 10.1 23.299 0.2 9.1-3.5 17.601-10 23.701-5.8 5-13.2 7.3984-25 7.3984h-5z"/>
</svg>
