<?xml version="1.0" encoding="utf-8"?>
<!-- Generator: Adobe Illustrator 23.0.4, SVG Export Plug-In . SVG Version: 6.00 Build 0)  -->
<svg version="1.1" id="Layer_1" xmlns="http://www.w3.org/2000/svg" xmlns:xlink="http://www.w3.org/1999/xlink" x="0px" y="0px"
	 viewBox="0 0 176 104" style="enable-background:new 0 0 176 104;" xml:space="preserve">
<title>Mastercard</title>
<path d="M131.6,55.6l-0.4,2.1c-0.3,1.8-2.8,2.9-4.5,2.2c-1.7-0.7-1.3-2.7,0.4-3.8C128.8,55,130.7,55.5,131.6,55.6z M38.5,56.1
	c-1.7,1.1-2.2,3.2-0.4,3.8s4.2-0.5,4.5-2.2l0.4-2.1C42.1,55.5,40.2,55,38.5,56.1C38.5,56.1,38.5,56.1,38.5,56.1z M83.9,48.6
	c-2.1,0-3.6,1.1-4.2,3.5h6.5C86.6,50.3,86,48.6,83.9,48.6z M155.8,54.1c-0.7,2.8,0.9,4.8,2.7,4.8s3.1-1.5,4.1-3.9
	c0.5-1.6,0.4-3.2-0.3-4.7C160.6,48.2,156.9,49.9,155.8,54.1L155.8,54.1z M176,52c0,28.7-23.3,52-52,52c-11.9,0-23.5-4.1-32.8-11.6
	c6.9-6.7,12.1-15,14.8-24.2h-4.3C99,76.3,94.3,83.7,88,89.6c-6.2-5.9-10.9-13.3-13.6-21.5h-4.3c2.8,9.2,7.8,17.5,14.7,24.1
	c-22.3,18.1-55,14.8-73.2-7.4s-14.8-55,7.4-73.2c19.1-15.6,46.6-15.6,65.7,0c-6.9,6.7-11.9,15-14.7,24.1h4.3
	c2.7-8.2,7.3-15.6,13.6-21.5c6.3,5.9,11,13.3,13.7,21.5h4.3c-2.8-9.2-7.9-17.6-14.9-24.2c22.3-18.1,55-14.7,73.1,7.6
	C171.8,28.5,176,40.1,176,52L176,52z M29.2,64.2L33.6,41H25l-6.4,14.1l-1-14.1H9.2L4.7,64.2h5.2l3.2-16.8l1.4,16.8h5l7.3-16.4
	l-3.1,16.4H29.2z M47.1,64.2l2.1-10.5c0.5-2.6,1.4-8.9-7.4-8.9c-2.3,0-4.6,0.2-6.8,0.7l-0.8,4.1c2.2-0.3,4.3-0.5,6.5-0.6
	c1.8,0.1,3.8-0.2,3.2,2.7c-1.3,0.1-10.7-1.3-12.2,6.7c-0.6,4,2.8,6,5.5,5.8s3.4-0.5,4.4-1.1l0.7,1.1L47.1,64.2L47.1,64.2z
	 M61.7,54.1c-1.2-0.8-2.5-1.5-3.8-2.1c-1.1-0.5-1.9-2.3,0.1-2.8c1.7-0.2,3.5-0.1,5.2,0.3l1.2-3.9c-1.7-0.6-3.4-0.9-5.2-0.7
	c-0.7,0-7-0.1-8,4.6c-0.7,3.6,0.6,5,1.8,5.6c2,0.9,3.2,1.7,4.2,2.2c0.8,0.4,1.1,1.3,0.7,2c-0.3,0.5-0.8,0.8-1.4,0.8
	c-0.8,0-4.3,0.4-6.9-0.5l-0.7,4c2,0.5,4.1,0.7,6.2,0.7c1.3,0,7.5,0.3,8.4-5.4C63.9,56,62.7,54.7,61.7,54.1z M72.9,59.5
	c-3,0.5-3.2-0.9-2.9-2.3l1.5-7.8h2.7l0.9-4.2h-2.8l1.1-5.1h-5.2l-3.6,18.2c-1,5.2,3,6,4.2,6c1.4,0,2.7-0.3,3.9-0.9L72.9,59.5z
	 M79.4,55.6h11.4c0.6-3.1,2-10.7-7.2-10.7c-8.5,0-9.5,8.4-9.7,9.6s-0.3,9.7,8.7,9.7c2.2,0.1,5.4-0.2,6.7-0.9l0.8-4
	c-2,0.3-3.9,0.5-5.9,0.5C82.1,59.9,78.8,60,79.4,55.6C79.4,55.6,79.4,55.6,79.4,55.6z M103.1,50.2l1.3-5c-1.9-0.2-3.7,0.5-5,1.9
	L99,45.2h-4.5l-3.6,19.1h5.2l1.6-8.7C99.3,49.8,101.8,50.2,103.1,50.2L103.1,50.2z M109.4,51.8c0.4-3.4,3-6,6.4-6.4
	c1.4-0.1,2.8,0.2,4,0.9l3.4-3.4c-1.3-1.5-2.9-2.9-7.2-3.1c-3.6-0.1-9.8,2.5-11.8,9.7c-2.7,9.8,3.2,14.6,8.7,14.6
	c2.2,0.1,4.4-0.3,6.4-1.2l-1.5-4.7C112.3,60.1,108.5,57.4,109.4,51.8C109.4,51.8,109.4,51.8,109.4,51.8z M135.7,64.2l2.1-10.5
	c0.5-2.6,1.4-8.9-7.4-8.9c-2.3,0-4.6,0.2-6.8,0.7l-0.9,4.1c2.2-0.3,4.3-0.5,6.5-0.6c1.8,0.1,3.8-0.2,3.2,2.7
	c-1.3,0.1-10.7-1.3-12.2,6.7c-0.6,4,2.8,6,5.5,5.8c2.7-0.2,3.4-0.5,4.4-1.1l0.7,1.1L135.7,64.2L135.7,64.2L135.7,64.2z M149.9,50
	l1.4-5c-1.9-0.1-3.7,0.6-5,1.9l-0.5-1.9h-4.5l-3.6,19.2h5.3l1.6-8.8C146.2,49.6,148.6,50,149.9,50C149.9,50,149.9,50,149.9,50z
	 M166.8,64.2l4.6-24.4h-5.5l-1.4,7.4c-1-0.7-1.6-2.3-4.1-2.3c-2.9,0-7.4-0.5-9.9,8.2c-1.7,5.8,1.7,11.1,5.5,11.1
	c1.6-0.1,3.2-0.6,4.6-1.5l0.7,1.5L166.8,64.2L166.8,64.2L166.8,64.2z"/>
</svg>
