<svg viewBox="0 0 256 256" xmlns="http://www.w3.org/2000/svg"><path d="m56.22 204.72a1.81 1.81 0 0 1 -1.82-1.81l-.4-120.59a1.83 1.83 0 0 1 1.82-1.83h172.72a1.82 1.82 0 0 1 1.82 1.81l.45 120.61a1.82 1.82 0 0 1 -1.8 1.83zm1.37-120.59.44 117h169.12l-.43-117z"/><path d="m40.57 65.19h172.77v2.48h-172.77z" fill="#9e9e9e"/><path d="m56.22 204.72a1.8 1.8 0 0 1 -1.26-.51l-29.59-28.35a1.85 1.85 0 0 1 -.56-1.32v-121.72a1.82 1.82 0 1 1 3.64 0v121l29 27.82a1.82 1.82 0 0 1 -1.26 3.13z"/><path d="m54.48 83.59-29.14-29.49a1.82 1.82 0 0 1 1.29-3.1h172.75a1.84 1.84 0 0 1 1.29.54l29.17 29.46-2.59 2.56-28.63-28.92h-167.62l26.07 26.36z"/><path d="m107.44 127.44h14.44v3.56h-10.46v5.87h9.86v3.6h-9.86v9.29h-4z"/><path d="m125.59 127.44h7.77a16.3 16.3 0 0 1 3.11.3 8.05 8.05 0 0 1 2.67 1 5.38 5.38 0 0 1 1.83 2 7.07 7.07 0 0 1 -.65 7.2 5.74 5.74 0 0 1 -3.84 2l5.94 9.89h-4.79l-5.16-9.49h-2.92v9.48h-4zm7.07 9.47a16.31 16.31 0 0 0 1.71-.08 5.23 5.23 0 0 0 1.56-.37 2.73 2.73 0 0 0 1.15-.92 2.91 2.91 0 0 0 .45-1.72 2.81 2.81 0 0 0 -.41-1.58 2.49 2.49 0 0 0 -1.08-.9 4.66 4.66 0 0 0 -1.46-.4 11.72 11.72 0 0 0 -1.57-.1h-3.44v6.07z"/><path d="m145.47 127.44h14.81v3.56h-10.82v5.49h10.27v3.6h-10.27v6.08h11.41v3.6h-15.38z"/><path d="m164.76 127.44h14.82v3.56h-10.83v5.49h10.25v3.6h-10.25v6.08h11.4v3.6h-15.38z"/></svg>