<svg xmlns="http://www.w3.org/2000/svg" viewBox="0 0 209.9 239.56"><title>promise-icon-30</title><path d="M92.85,133.71h2.93a39.41,39.41,0,0,0,4.74-.28,12.16,12.16,0,0,0,4.13-1.22,7.52,7.52,0,0,0,3-2.72,8.91,8.91,0,0,0,1.12-4.79,8.15,8.15,0,0,0-2.63-6.28A9.62,9.62,0,0,0,99.27,116a10.11,10.11,0,0,0-6,1.92,10.86,10.86,0,0,0-3.9,5.4l-12-3.2a20.36,20.36,0,0,1,3.2-6.38,17.71,17.71,0,0,1,4.88-4.45,21.74,21.74,0,0,1,6.19-2.59,30,30,0,0,1,15.2.29,20.67,20.67,0,0,1,6.75,3.33,16.21,16.21,0,0,1,4.65,5.53,16.52,16.52,0,0,1,1.74,7.74,15.91,15.91,0,0,1-3,9.55,14.05,14.05,0,0,1-8.37,5.47v.19a13.87,13.87,0,0,1,9.66,5.44,17.62,17.62,0,0,1,3.29,10.7,18.61,18.61,0,0,1-1.81,8.46,18.27,18.27,0,0,1-4.93,6.14,21.57,21.57,0,0,1-7.19,3.74,28.41,28.41,0,0,1-8.49,1.27,32.61,32.61,0,0,1-7.81-.89,21.74,21.74,0,0,1-6.61-2.77A18.69,18.69,0,0,1,79.59,166,21.63,21.63,0,0,1,76.31,159l12-3.19A11.88,11.88,0,0,0,92,162.14a10.6,10.6,0,0,0,7.13,2.25,12,12,0,0,0,4.27-.75,11.31,11.31,0,0,0,3.57-2.11,10,10,0,0,0,2.44-3.28,10.28,10.28,0,0,0,.89-4.27,8.71,8.71,0,0,0-4.84-8.31,15.12,15.12,0,0,0-4.73-1.46,37.24,37.24,0,0,0-5.17-.38H92.82Z" transform="translate(-29.05 -12.58)"/><path d="M131.32,140.19a62.13,62.13,0,0,1,1.27-13.47,36.32,36.32,0,0,1,3.34-9.38,22.12,22.12,0,0,1,4.64-6.1,19.85,19.85,0,0,1,5.26-3.47,20.21,20.21,0,0,1,5.16-1.55,25,25,0,0,1,8.72,0,20.41,20.41,0,0,1,5.17,1.55,20,20,0,0,1,5.25,3.47,22.12,22.12,0,0,1,4.64,6.1,37.08,37.08,0,0,1,3.34,9.38,61.5,61.5,0,0,1,1.26,13.47,61.47,61.47,0,0,1-1.26,13.46,37.29,37.29,0,0,1-3.34,9.39,22.22,22.22,0,0,1-4.64,6.09,19.84,19.84,0,0,1-10.42,5,25.53,25.53,0,0,1-8.72,0,19.93,19.93,0,0,1-10.42-5,22.22,22.22,0,0,1-4.64-6.09,36.88,36.88,0,0,1-3.33-9.39A61.49,61.49,0,0,1,131.32,140.19Zm11.26,0a69,69,0,0,0,.43,7.18,32.61,32.61,0,0,0,1.73,7.74,16.62,16.62,0,0,0,3.87,6.19,10.3,10.3,0,0,0,13.52,0,16.55,16.55,0,0,0,3.84-6.19,33.24,33.24,0,0,0,1.74-7.74,61.58,61.58,0,0,0,0-14.36,32.82,32.82,0,0,0-1.74-7.75,16.55,16.55,0,0,0-3.84-6.19,9.24,9.24,0,0,0-6.79-2.54,9,9,0,0,0-6.73,2.54,16.55,16.55,0,0,0-3.84,6.19A32.71,32.71,0,0,0,143,133a71.69,71.69,0,0,0-.45,7.18Z" transform="translate(-29.05 -12.58)"/><path d="M216.38,252.14H184.86v-4.39h31.28c.08,0,8.22.23,13.57-4.95,3.22-3.1,4.85-7.59,4.85-13.35s-1.65-10.37-4.88-13.47c-5.29-5.08-13.11-4.83-13.18-4.83H183.71v-4.39h32.66c.85,0,9.91-.15,16.35,6,4.13,4,6.23,9.57,6.23,16.65S236.86,242,232.73,246C226.7,251.79,218.34,252.14,216.38,252.14Z" transform="translate(-29.05 -12.58)"/><polygon points="175.57 214.71 146.3 196.39 175.57 178.07 177.9 181.79 154.57 196.39 177.9 210.99 175.57 214.71"/><line x1="31.99" y1="6.1" x2="31.99" y2="32.17" style="fill:none"/><path d="M61,50.85a6.11,6.11,0,0,1-6.1-6.1V18.68a6.1,6.1,0,0,1,12.2,0V44.75A6.1,6.1,0,0,1,61,50.85Z" transform="translate(-29.05 -12.58)"/><line x1="167.18" y1="6.1" x2="167.18" y2="32.17" style="fill:none"/><path d="M196.23,50.85a6.1,6.1,0,0,1-6.1-6.1V18.68a6.1,6.1,0,0,1,12.2,0V44.75A6.1,6.1,0,0,1,196.23,50.85Z" transform="translate(-29.05 -12.58)"/><polygon points="140.66 207.03 0 207.03 0 18.26 197.6 18.26 197.6 179.07 193.21 179.07 193.21 22.65 4.39 22.65 4.39 202.64 140.66 202.64 140.66 207.03"/><line x1="196.89" y1="66.84" x2="1.68" y2="66.84" style="fill:none"/><rect x="1.68" y="64.64" width="195.21" height="4.39"/></svg>