<svg xmlns="http://www.w3.org/2000/svg" viewBox="0 0 256 256"><title>promise-icon-eur</title><path d="M61,51.29a6.1,6.1,0,0,1-6.1-6.1V19.11a6.1,6.1,0,1,1,12.2,0V45.19A6.1,6.1,0,0,1,61,51.29Z"/><path d="M196.22,51.29a6.1,6.1,0,0,1-6.1-6.1V19.11a6.11,6.11,0,0,1,12.21,0V45.19A6.11,6.11,0,0,1,196.22,51.29Z"/><path d="M170.19,220.1H29V31.27H226.65V193.52Zm-136.8-4.4H169.2l53.06-25V35.67H33.39Z"/><polyline points="168.82 218.17 177.44 184.54 225.04 190.46"/><polygon points="170.71 218.12 168.68 217.68 176.19 183.19 224.52 188.72 224.28 190.78 177.81 185.47 170.71 218.12"/><path d="M136.66,175a27.8,27.8,0,0,0,17.18-5.72l.52-.52-3.12-8.33-1,1c-4.17,3.64-8.33,5.21-13,5.21-8.34,0-13.54-5.73-15.62-15.62h20.81v-7.82H120.53v-4.68h21.86v-7.81H121.57c2.08-9.89,7.81-15.62,15.62-15.62,5.2,0,9.37,2.6,12.49,5.2l1,1,3.12-8.84-.51-.53a25.47,25.47,0,0,0-16.14-5.72c-13.53,0-22.9,8.85-26,24.46h-9.89v7.81h9.37v4.69h-9.37v7.81h9.89c3.12,15.09,12.49,23.94,25.5,23.94"/><rect x="30.68" y="77.67" width="195.26" height="4.39"/></svg>