<svg xmlns="http://www.w3.org/2000/svg" xmlns:xlink="http://www.w3.org/1999/xlink" viewBox="0 0 283.46 283.46">
  <g>
    <path d="M141.73,0A141.73,141.73,0,1,0,283.46,141.73,141.73,141.73,0,0,0,141.73,0Zm-1.17,230.59a89.32,89.32,0,1,1,89.31-89.31A89.31,89.31,0,0,1,140.56,230.59Z"/>
    <path d="M179.37,169.32C166.38,188.52,148.31,206,124,206c-25.69,0-40.66-16.1-40.66-42.08,0-42.06,31.06-83.29,74.82-83.29,14.69,0,34.45,5.94,34.45,23.72,0,31.91-50,42.64-74.54,48.85a103.24,103.24,0,0,0-1.69,16.09c0,11,5.93,21.18,18.07,21.18,15.81,0,28.52-15.25,37.83-26.55Zm-13.55-68.61c0-6.49-3.67-11.57-10.45-11.57-20.33,0-30.77,39.52-34.73,55.05C139.56,138.55,165.82,123,165.82,100.71Z"/>
  </g>
</svg>
