<?xml version="1.0" encoding="utf-8"?>
<!-- Generator: Adobe Illustrator 23.0.4, SVG Export Plug-In . SVG Version: 6.00 Build 0)  -->
<svg version="1.1" id="Layer_1" xmlns="http://www.w3.org/2000/svg" xmlns:xlink="http://www.w3.org/1999/xlink" x="0px" y="0px"
	 viewBox="0 0 226.5 270" style="enable-background:new 0 0 226.5 270;" xml:space="preserve">
<title>UPS</title>
<path d="M113.2,270c0,0-63.4-27.3-82.9-43.4C9.9,209.9,0,186.3,0,159.1V24.8C50-2.1,113.2,0,113.2,0s63.3-2.1,113.3,24.8v134.3
	c0,27.2-9.9,50.8-30.3,67.6C176.6,242.7,113.2,270,113.2,270 M9,159.1c0,25.2,9.4,46.1,27,60.6c15.9,13,63.9,34.6,77.2,40.5
	c13.4-5.9,61.4-27.5,77.2-40.5c17.7-14.5,27-35.5,27-60.6V26.8C150.6,20.5,71.6,24.3,9,81.8V159.1L9,159.1z M177.2,140.5
	c8.8,5.2,12.3,8.6,12.5,14.8c0.2,7-4.6,11.2-12,11.1c-6.4,0-14-3.6-19.1-8.1v18.4c6.7,4,14.2,6.1,22,6.2c19.8,0,28.6-14,29-26.7
	c0.4-11.6-2.9-20.5-19.5-30.3c-7.5-4.4-13.3-7.2-13.1-14.5c0.2-7.1,6.1-9.6,11.7-9.5c7,0.1,13.7,3.9,17.9,8.2V92.7
	c-3.5-2.7-11-6.8-21.9-6.5c-13.1,0.4-26.9,9.9-26.8,26C157.7,122.8,160.7,130.8,177.2,140.5 M109.3,181.5c2.9,0.8,6,1.2,9,1.1
	c22.2,0,34.9-20,34.9-49.1s-13.1-47.2-37-47.2c-10.9,0-19.7,2.4-26.9,7.1v130.2h20L109.3,181.5L109.3,181.5z M109.3,103.7
	c2.2-1,4.6-1.5,7.1-1.4c11.6,0,16.4,9.3,16.4,31.6c0,21.8-5.5,32.4-17,32.4c-2.2,0-4.4-0.4-6.5-1.2L109.3,103.7L109.3,103.7z
	 M49,182.9c12.2,0,22.5-2.8,30.1-8V88.2H59.1v75.3c-2.8,1.7-6.1,2.6-9.4,2.4c-9.1,0-10.5-8.4-10.5-14.1V88.2h-20V151
	C19.2,172.2,29.2,182.9,49,182.9"/>
</svg>
