<?xml version="1.0" encoding="utf-8"?>
<!-- Generator: Adobe Illustrator 23.0.4, SVG Export Plug-In . SVG Version: 6.00 Build 0)  -->
<svg version="1.1" id="Ebene_1" xmlns="http://www.w3.org/2000/svg" xmlns:xlink="http://www.w3.org/1999/xlink" x="0px" y="0px"
	 viewBox="0 0 166.1 53.8" style="enable-background:new 0 0 166.1 53.8;" xml:space="preserve">
<style type="text/css">
	.st0{fill-rule:evenodd;clip-rule:evenodd;}
</style>
<title>VISA</title>
<polygon class="st0" points="50.2,52.4 65.8,1.1 79.7,1.1 64.1,52.4 50.2,52.4 "/>
<path class="st0" d="M44,1.1L31.6,22.9c-3.2,5.7-5,8.6-5.9,12.2h-0.1c0.2-4.6-0.4-10.2-0.5-13.3L23.6,1.1H0.2L0,2.5
	c6,0,9.6,3,10.5,9.2l4.6,40.7h14.4l29-51.3H44z"/>
<path class="st0" d="M151.9,52.4l-0.4-7.6h-17.3l-3.5,7.6h-15.1l27.3-51.2h18.5l4.6,51.2L151.9,52.4L151.9,52.4z M150.4,22.1
	c-0.2-4-0.2-8,0-12h-0.2c-0.8,2.5-4.5,10.2-6.1,14l-5.2,11.2h12.2L150.4,22.1L150.4,22.1L150.4,22.1z"/>
<path class="st0" d="M94.2,53.9c-7.4,0.1-14.7-2-20.9-5.9l6.6-10.1c4.2,2.3,7.4,5,15,5c2.4,0,4.8-0.6,6.1-2.9
	c1.9-3.3-0.5-5.1-5.9-8.2L92.4,30c-8-5.5-11.5-10.7-7.7-19.8C87.1,4.4,93.5,0,104,0c6.5,0.1,12.8,2.3,18,6.2l-7.6,8.9
	c-3.9-3.1-7.1-4.7-10.8-4.7c-2.9,0-5.1,1.1-5.9,2.6c-1.5,2.9,0.5,4.8,4.7,7.4l3.2,2c9.8,6.1,12.1,12.6,9.6,18.6
	C111.1,51.5,102.8,53.8,94.2,53.9L94.2,53.9L94.2,53.9z"/>
</svg>
